<?xml version="1.0" encoding="utf-8"?>
<!-- Generator: Adobe Illustrator 15.1.0, SVG Export Plug-In . SVG Version: 6.00 Build 0)  -->
<!DOCTYPE svg PUBLIC "-//W3C//DTD SVG 1.1//EN" "http://www.w3.org/Graphics/SVG/1.1/DTD/svg11.dtd">
<svg version="1.1" id="Layer_1" xmlns="http://www.w3.org/2000/svg" xmlns:xlink="http://www.w3.org/1999/xlink" x="0px" y="0px"
	 width="63px" height="63px" viewBox="0 0 63 63" enable-background="new 0 0 63 63" xml:space="preserve">
<path fill="#BB96C5" d="M31.5,0C14.103,0,0,14.103,0,31.5S14.103,63,31.5,63S63,48.897,63,31.5S48.897,0,31.5,0z M48.271,32.594
	H33.58V48h-4.16V32.594h-14.69v-3.9h14.69V13.419h4.16v15.275h14.691V32.594z"/>
<polygon fill="#FFFFFF" points="33.58,13.419 29.419,13.419 29.419,28.694 14.729,28.694 14.729,32.594 29.419,32.594 29.419,48 
	33.58,48 33.58,32.594 48.271,32.594 48.271,28.694 33.58,28.694 "/>
</svg>
