<?xml version="1.0" encoding="utf-8"?>
<!-- Generator: Adobe Illustrator 15.1.0, SVG Export Plug-In . SVG Version: 6.00 Build 0)  -->
<!DOCTYPE svg PUBLIC "-//W3C//DTD SVG 1.1//EN" "http://www.w3.org/Graphics/SVG/1.1/DTD/svg11.dtd">
<svg version="1.1" id="Layer_1" xmlns="http://www.w3.org/2000/svg" xmlns:xlink="http://www.w3.org/1999/xlink" x="0px" y="0px"
	 width="18.656px" height="18.655px" viewBox="0 0 18.656 18.655" enable-background="new 0 0 18.656 18.655" xml:space="preserve">
<g>
	<g>
		<path fill="#9B9A9A" d="M-40.086,26.648c-3.637-3.638-3.637-9.556,0-13.192c3.637-3.637,9.554-3.637,13.191,0
			c3.638,3.637,3.638,9.554,0,13.192C-30.532,30.285-36.449,30.285-40.086,26.648z M-27.664,14.225
			c-3.213-3.213-8.441-3.213-11.654,0c-3.212,3.213-3.213,8.441,0,11.654c3.214,3.213,8.441,3.213,11.654,0
			S-24.45,17.438-27.664,14.225z"/>
	</g>
	<g>
		<g>
			
				<rect x="-34.034" y="15.035" transform="matrix(0.7071 0.7071 -0.7071 0.7071 4.3694 29.5545)" fill="#9B9A9A" width="1.087" height="10.033"/>
		</g>
		<g>
			
				<rect x="-38.508" y="19.508" transform="matrix(0.7071 0.7071 -0.7071 0.7071 4.3692 29.5558)" fill="#9B9A9A" width="10.034" height="1.087"/>
		</g>
	</g>
</g>
<g>
	<g>
		<path fill="#9B9A9A" d="M-64.062,26.648c-3.637-3.638-3.637-9.556,0-13.192c3.637-3.637,9.554-3.637,13.191,0
			c3.638,3.637,3.638,9.554,0,13.192C-54.507,30.285-60.424,30.285-64.062,26.648z M-51.639,14.225
			c-3.213-3.213-8.441-3.213-11.654,0c-3.212,3.213-3.213,8.441,0,11.654c3.214,3.213,8.441,3.213,11.654,0
			S-48.425,17.438-51.639,14.225z"/>
	</g>
	<g>
		<g>
			<polygon fill="#9B9A9A" points="-53.087,24.744 -60.462,24.744 -60.462,20.986 -59.78,20.986 -59.78,24.062 -53.769,24.062 
				-53.769,18.177 -56.795,18.177 -56.795,17.495 -53.087,17.495 			"/>
		</g>
		<circle fill="#9B9A9A" cx="-60.121" cy="17.751" r="2.558"/>
	</g>
</g>
<g>
	<g>
		<path fill="#9B9A9A" d="M9.328,18.655C4.185,18.654,0,14.471,0,9.327S4.184,0,9.328,0c5.145,0,9.328,4.184,9.328,9.328
			C18.656,14.471,14.473,18.654,9.328,18.655z M9.328,1.087c-4.544,0-8.24,3.697-8.24,8.241c0,4.543,3.696,8.241,8.24,8.241
			c4.545,0,8.24-3.697,8.24-8.241C17.568,4.784,13.873,1.087,9.328,1.087z"/>
	</g>
	<g>
		<g>
			<rect x="8.785" y="4.311" fill="#9B9A9A" width="1.087" height="10.033"/>
		</g>
		<g>
			<rect x="4.312" y="8.784" fill="#9B9A9A" width="10.033" height="1.087"/>
		</g>
	</g>
</g>
<path fill="none" stroke="#9B9A9A" stroke-miterlimit="10" d="M80.905,34.832c0-6.327,13.344-1.497,0,7.531
	C67.565,33.334,80.905,28.504,80.905,34.832z"/>
<g>
	<path fill="#9B9A9A" d="M80.719,45.862c-5.144-0.001-9.328-4.185-9.328-9.328s4.184-9.327,9.328-9.327
		c5.145,0,9.328,4.184,9.328,9.328C90.047,41.678,85.863,45.861,80.719,45.862z M80.719,28.294c-4.544,0-8.24,3.697-8.24,8.241
		c0,4.543,3.696,8.241,8.24,8.241c4.545,0,8.24-3.697,8.24-8.241C88.959,31.991,85.264,28.294,80.719,28.294z"/>
</g>
<g>
	<g>
		<rect x="-87.511" y="64.027" fill="#9B9A9A" width="1.087" height="10.033"/>
	</g>
	<g>
		<rect x="-91.984" y="68.5" fill="#9B9A9A" width="10.033" height="1.087"/>
	</g>
</g>
</svg>
