<?xml version="1.0" encoding="utf-8"?>
<!-- Generator: Adobe Illustrator 15.1.0, SVG Export Plug-In . SVG Version: 6.00 Build 0)  -->
<!DOCTYPE svg PUBLIC "-//W3C//DTD SVG 1.1//EN" "http://www.w3.org/Graphics/SVG/1.1/DTD/svg11.dtd">
<svg version="1.1" id="Layer_1" xmlns="http://www.w3.org/2000/svg" xmlns:xlink="http://www.w3.org/1999/xlink" x="0px" y="0px"
	 width="20.743px" height="23.604px" viewBox="66.604 62.646 20.743 23.604" enable-background="new 66.604 62.646 20.743 23.604"
	 xml:space="preserve">
<g>
	<rect x="67.324" y="80.151" fill="#99999A" width="19.301" height="5.388"/>
	<g>
		<path fill="#99999A" d="M77.303,63.293v15.861h9.324V63.293H77.303z M79.089,72.392c-0.396,0-0.716-0.322-0.716-0.718
			c0-0.395,0.319-0.715,0.716-0.715c0.396,0,0.717,0.32,0.717,0.715C79.806,72.07,79.484,72.392,79.089,72.392z"/>
		<path fill="#99999A" d="M67.324,79.154h9.322V63.293h-9.322V79.154z M74.828,70.959c0.396,0,0.718,0.32,0.718,0.715
			c0,0.396-0.322,0.718-0.718,0.718c-0.395,0-0.718-0.322-0.718-0.718C74.11,71.279,74.433,70.959,74.828,70.959z"/>
	</g>
</g>
</svg>
