<?xml version="1.0" encoding="utf-8"?>
<!-- Generator: Adobe Illustrator 15.1.0, SVG Export Plug-In . SVG Version: 6.00 Build 0)  -->
<!DOCTYPE svg PUBLIC "-//W3C//DTD SVG 1.1//EN" "http://www.w3.org/Graphics/SVG/1.1/DTD/svg11.dtd">
<svg version="1.1" id="Layer_1" xmlns="http://www.w3.org/2000/svg" xmlns:xlink="http://www.w3.org/1999/xlink" x="0px" y="0px"
	 width="18.656px" height="18.655px" viewBox="0 0 18.656 18.655" enable-background="new 0 0 18.656 18.655" xml:space="preserve">
<g>
	<g>
		<path fill="#9B9A9A" d="M2.732,15.924c-3.637-3.638-3.637-9.556,0-13.192c3.637-3.637,9.554-3.637,13.191,0
			c3.638,3.637,3.638,9.554,0,13.192C12.287,19.561,6.37,19.561,2.732,15.924z M15.155,3.5c-3.213-3.213-8.441-3.213-11.654,0
			c-3.212,3.213-3.213,8.441,0,11.654c3.214,3.213,8.441,3.213,11.654,0S18.369,6.714,15.155,3.5z"/>
	</g>
	<g>
		<g>
			
				<rect x="8.785" y="4.311" transform="matrix(0.7071 0.7071 -0.7071 0.7071 9.3276 -3.864)" fill="#9B9A9A" width="1.087" height="10.033"/>
		</g>
		<g>
			
				<rect x="4.311" y="8.784" transform="matrix(0.7071 0.7071 -0.7071 0.7071 9.3282 -3.864)" fill="#9B9A9A" width="10.034" height="1.087"/>
		</g>
	</g>
</g>
<g>
	<g>
		<path fill="#9B9A9A" d="M-2.481,41.522c-3.637-3.638-3.637-9.556,0-13.192c3.637-3.637,9.554-3.637,13.191,0
			c3.638,3.637,3.638,9.554,0,13.192C7.073,45.159,1.156,45.159-2.481,41.522z M9.941,29.099c-3.213-3.213-8.441-3.213-11.654,0
			c-3.212,3.213-3.213,8.441,0,11.654c3.214,3.213,8.441,3.213,11.654,0S13.155,32.313,9.941,29.099z"/>
	</g>
	<g>
		<g>
			<polygon fill="#9B9A9A" points="8.493,39.618 1.118,39.618 1.118,35.86 1.801,35.86 1.801,38.937 7.812,38.937 7.812,33.052 
				4.785,33.052 4.785,32.37 8.493,32.37 			"/>
		</g>
		<circle fill="#9B9A9A" cx="1.459" cy="32.625" r="2.558"/>
	</g>
</g>
<g>
	<g>
		<path fill="#9B9A9A" d="M47.328,53.034C42.185,53.033,38,48.85,38,43.706s4.184-9.327,9.328-9.327
			c5.145,0,9.328,4.184,9.328,9.328C56.656,48.85,52.473,53.033,47.328,53.034z M47.328,35.466c-4.544,0-8.24,3.697-8.24,8.241
			c0,4.543,3.696,8.241,8.24,8.241c4.545,0,8.24-3.697,8.24-8.241C55.568,39.163,51.873,35.466,47.328,35.466z"/>
	</g>
	<g>
		<g>
			<rect x="46.785" y="38.69" fill="#9B9A9A" width="1.087" height="10.033"/>
		</g>
		<g>
			<rect x="42.312" y="43.163" fill="#9B9A9A" width="10.033" height="1.087"/>
		</g>
	</g>
</g>
<path fill="none" stroke="#9B9A9A" stroke-miterlimit="10" d="M80.905,34.832c0-6.327,13.344-1.497,0,7.531
	C67.565,33.334,80.905,28.504,80.905,34.832z"/>
<g>
	<path fill="#9B9A9A" d="M80.719,45.862c-5.144-0.001-9.328-4.185-9.328-9.328s4.184-9.327,9.328-9.327
		c5.145,0,9.328,4.184,9.328,9.328C90.047,41.678,85.863,45.861,80.719,45.862z M80.719,28.294c-4.544,0-8.24,3.697-8.24,8.241
		c0,4.543,3.696,8.241,8.24,8.241c4.545,0,8.24-3.697,8.24-8.241C88.959,31.991,85.264,28.294,80.719,28.294z"/>
</g>
<g>
	<g>
		<rect x="-87.511" y="64.027" fill="#9B9A9A" width="1.087" height="10.033"/>
	</g>
	<g>
		<rect x="-91.984" y="68.5" fill="#9B9A9A" width="10.033" height="1.087"/>
	</g>
</g>
</svg>
