<?xml version="1.0" encoding="utf-8"?>
<!-- Generator: Adobe Illustrator 15.1.0, SVG Export Plug-In . SVG Version: 6.00 Build 0)  -->
<!DOCTYPE svg PUBLIC "-//W3C//DTD SVG 1.1//EN" "http://www.w3.org/Graphics/SVG/1.1/DTD/svg11.dtd">
<svg version="1.1" id="Layer_1" xmlns="http://www.w3.org/2000/svg" xmlns:xlink="http://www.w3.org/1999/xlink" x="0px" y="0px"
	 width="18.656px" height="18.655px" viewBox="0 0 18.656 18.655" enable-background="new 0 0 18.656 18.655" xml:space="preserve">
<g>
	<g>
		<path fill="#9B9A9A" d="M-40.086,26.648c-3.637-3.638-3.637-9.556,0-13.192c3.637-3.637,9.554-3.637,13.191,0
			c3.638,3.637,3.638,9.554,0,13.192C-30.532,30.285-36.449,30.285-40.086,26.648z M-27.664,14.225
			c-3.213-3.213-8.441-3.213-11.654,0c-3.212,3.213-3.213,8.441,0,11.654c3.214,3.213,8.441,3.213,11.654,0
			S-24.45,17.438-27.664,14.225z"/>
	</g>
	<g>
		<g>
			
				<rect x="-34.034" y="15.035" transform="matrix(0.7071 0.7071 -0.7071 0.7071 4.3694 29.5545)" fill="#9B9A9A" width="1.087" height="10.033"/>
		</g>
		<g>
			
				<rect x="-38.508" y="19.508" transform="matrix(0.7071 0.7071 -0.7071 0.7071 4.3692 29.5558)" fill="#9B9A9A" width="10.034" height="1.087"/>
		</g>
	</g>
</g>
<g>
	<g>
		<path fill="#9B9A9A" d="M2.732,15.924c-3.637-3.638-3.637-9.556,0-13.192c3.637-3.637,9.554-3.637,13.191,0
			c3.638,3.637,3.638,9.554,0,13.192C12.287,19.561,6.37,19.561,2.732,15.924z M15.155,3.5C11.942,0.288,6.713,0.288,3.5,3.5
			c-3.212,3.213-3.213,8.441,0,11.654c3.214,3.213,8.441,3.213,11.654,0S18.369,6.714,15.155,3.5z"/>
	</g>
	<g>
		<g>
			<polygon fill="#9B9A9A" points="13.707,14.02 6.332,14.02 6.332,10.262 7.014,10.262 7.014,13.338 13.025,13.338 13.025,7.453 
				9.999,7.453 9.999,6.771 13.707,6.771 			"/>
		</g>
		<circle fill="#9B9A9A" cx="6.673" cy="7.027" r="2.558"/>
	</g>
</g>
<g>
	<g>
		<path fill="#9B9A9A" d="M47.328,53.034C42.185,53.033,38,48.85,38,43.706s4.184-9.327,9.328-9.327
			c5.145,0,9.328,4.184,9.328,9.328C56.656,48.85,52.473,53.033,47.328,53.034z M47.328,35.466c-4.544,0-8.24,3.697-8.24,8.241
			c0,4.543,3.696,8.241,8.24,8.241c4.545,0,8.24-3.697,8.24-8.241C55.568,39.163,51.873,35.466,47.328,35.466z"/>
	</g>
	<g>
		<g>
			<rect x="46.785" y="38.69" fill="#9B9A9A" width="1.087" height="10.033"/>
		</g>
		<g>
			<rect x="42.312" y="43.163" fill="#9B9A9A" width="10.033" height="1.087"/>
		</g>
	</g>
</g>
<path fill="none" stroke="#9B9A9A" stroke-miterlimit="10" d="M80.905,34.832c0-6.327,13.344-1.497,0,7.531
	C67.565,33.334,80.905,28.504,80.905,34.832z"/>
<g>
	<path fill="#9B9A9A" d="M80.719,45.862c-5.144-0.001-9.328-4.185-9.328-9.328s4.184-9.327,9.328-9.327
		c5.145,0,9.328,4.184,9.328,9.328C90.047,41.678,85.863,45.861,80.719,45.862z M80.719,28.294c-4.544,0-8.24,3.697-8.24,8.241
		c0,4.543,3.696,8.241,8.24,8.241c4.545,0,8.24-3.697,8.24-8.241C88.959,31.991,85.264,28.294,80.719,28.294z"/>
</g>
<g>
	<g>
		<rect x="-87.511" y="64.027" fill="#9B9A9A" width="1.087" height="10.033"/>
	</g>
	<g>
		<rect x="-91.984" y="68.5" fill="#9B9A9A" width="10.033" height="1.087"/>
	</g>
</g>
</svg>
