<?xml version="1.0" encoding="utf-8"?>
<!-- Generator: Adobe Illustrator 15.1.0, SVG Export Plug-In . SVG Version: 6.00 Build 0)  -->
<!DOCTYPE svg PUBLIC "-//W3C//DTD SVG 1.1//EN" "http://www.w3.org/Graphics/SVG/1.1/DTD/svg11.dtd">
<svg version="1.1" id="Layer_1" xmlns="http://www.w3.org/2000/svg" xmlns:xlink="http://www.w3.org/1999/xlink" x="0px" y="0px"
	 width="20.743px" height="23.604px" viewBox="66.604 62.646 20.743 23.604" enable-background="new 66.604 62.646 20.743 23.604"
	 xml:space="preserve">
<g>
	<polygon fill="#4F4F4F" points="87.347,86.25 85.395,86.25 85.395,85.954 87.047,85.954 87.047,84.32 87.347,84.32 	"/>
	<path fill="#4F4F4F" d="M82.027,86.25h-3.366v-0.296h3.366V86.25L82.027,86.25z M75.291,86.25h-3.368v-0.296h3.368V86.25z"/>
	<polygon fill="#4F4F4F" points="68.554,86.25 66.604,86.25 66.604,84.32 66.903,84.32 66.903,85.954 68.554,85.954 	"/>
	<path fill="#4F4F4F" d="M66.903,80.371h-0.299v-3.948h0.299V80.371z M66.903,72.473h-0.299v-3.947h0.299V72.473z"/>
	<polygon fill="#4F4F4F" points="66.903,64.577 66.604,64.577 66.604,62.646 68.554,62.646 68.554,62.943 66.903,62.943 	"/>
	<path fill="#4F4F4F" d="M82.027,62.943h-3.369v-0.297h3.369V62.943z M75.291,62.943h-3.368v-0.297h3.368V62.943z"/>
	<polygon fill="#4F4F4F" points="87.347,64.577 87.047,64.577 87.047,62.943 85.395,62.943 85.395,62.646 87.347,62.646 	"/>
	<path fill="#4F4F4F" d="M87.347,80.371h-0.3v-3.949h0.3V80.371z M87.347,72.473h-0.3v-3.947h0.3V72.473z"/>
</g>
</svg>
