<?xml version="1.0" encoding="utf-8"?>
<!-- Generator: Adobe Illustrator 15.1.0, SVG Export Plug-In . SVG Version: 6.00 Build 0)  -->
<!DOCTYPE svg PUBLIC "-//W3C//DTD SVG 1.1//EN" "http://www.w3.org/Graphics/SVG/1.1/DTD/svg11.dtd">
<svg version="1.1" xmlns="http://www.w3.org/2000/svg" xmlns:xlink="http://www.w3.org/1999/xlink" x="0px" y="0px" width="150px"
	 height="150px" viewBox="0 0 150 150" enable-background="new 0 0 150 150" xml:space="preserve">
<g id="Layer_1">
	<g>
		<path fill-rule="evenodd" clip-rule="evenodd" d="M445.142-49.325c0,0,0.346-44.122,8.029-63.191c0,0,14.519,1.189,44.765,1.75
			c0,0-15.739,8.333,58.572,61.439l-112.064,0.001"/>
		<path d="M546.808-188.816c0.17-1.674,1.069-1.241,3.073-2.458c-0.64,0.218-2.184,0.114-3.073-0.307
			c2.425-6.034,4.511-12.206,3.688-18.738c-0.381-3.011-1.595-6.688-3.072-9.217c-11.275-19.254-46.746-26.523-70.961-15.359
			c-16.686,7.69-24.201,23.967-27.033,45.771c-0.7,5.38-0.953,11.546-2.15,17.509c-1.058,5.247-3.3,10.366-3.688,16.59
			c-1.263,20.299,6.19,31.525,22.118,35.325c-2.034,3.7-6.489,4.981-10.442,6.759c0.7,7.146,7.95,10.646,12.593,14.437l35.06,13.043
			c-0.421-7.598,2.97-2.613,3.952-10.893c0.932-7.822,1.561-16.286,3.994-22.118c1.358-3.253,7.275-11.963,10.139-14.437
			c5.598-4.838,10.833-0.091,19.659-1.536c3.762-0.617,8.063-3.652,8.604-7.066c0.408-2.59-0.996-4.79-0.615-6.759
			c0.468-2.417,5.911-5.217,1.536-7.985c4.809-2.51,2.225-6.323,0.922-10.753c1.81-1.158,5.014-0.925,5.835-3.072v0.015
			c0,0,0.534-0.983,0.553-1.542c0.019-0.562-0.553-1.545-0.553-1.545C553.447-178.253,548.086-181.495,546.808-188.816z"/>
		<g>
			<path fill-rule="evenodd" clip-rule="evenodd" d="M491.747-105.358c-0.883,1.564-3.306,1.585-4.538,2.793h-0.35
				c-3.809,1.351-9.457,1.351-13.266,0c-1.91-0.88-3.726-1.861-5.586-2.793c-0.744-1.431-3.718-2.221-3.143-3.84h14.314
				c0.945,0.569,2.576,0.451,3.84,0.698h0.698c1.414,0.566,3.059,0.901,4.538,1.396c0.975,0.307,1.726,0.838,2.793,1.047
				C491.122-105.662,491.437-105.512,491.747-105.358z"/>
		</g>
		<g>
			<path fill="#B0AFB0" d="M507.241-106.257c1.257-7.133-18.151-35.253-61.171-34.391c-43.021,0.861-89.477,61.042-135.449,58.37
				c-45.972-2.673-39.05-54.75-39.05-54.75c-12.259,2.31-17.134,16.471-17.134,16.471c-4.05,43.036-24.911,29.005-25.222,36.383
				c-0.312,7.377,16.239,31.357,26.789,38.011c10.548,6.654,61.853,32.805,116.567-19.549
				c54.715-52.354,83.937-52.991,78.506-49.733c-5.43,3.258,1.811,2.896-2.882,13.39c-4.693,10.494,50.668,13.037,56.46,9.554
				C510.448-95.983,505.984-99.124,507.241-106.257z M464.886-116.393c0,0,19.798-1.917,27.875,3.982
				C500.837-106.512,468.074-106.843,464.886-116.393z"/>
		</g>
	</g>
	<g>
		<path fill-rule="evenodd" clip-rule="evenodd" fill="#AFAFAF" d="M785.852,117.179c0.297,0,0.596,0,0.894,0
			c0.079,1.261,1.632,1.048,2.682,1.34c0.231,0.588,0.267,1.372,0.223,2.235c1.844,0.391,1.825,2.645,3.353,3.351
			c0.344,1.3-0.158,2.196,0.447,3.353c0.73-0.189,0.813,1.097,1.34,1.34c0.387,0.179,1.218-0.314,1.564-0.224
			c0.391,0.103,0.34,0.814,0.894,1.118c1.39,0.762,2.397,0.534,3.128,2.011c2.916-0.011,5.746,0.064,7.15,1.564
			c1.712-1.979,4.869-0.728,7.374-1.564c0.917-0.306,1.051-1.252,1.788-1.787c0.868-0.631,2.311-0.132,2.234-1.341
			c0.725-0.129,1.039,0.152,1.564,0.224c0.521-0.372,0.539-1.248,1.563-1.117c0.399-1.438,0.231-2.119,0.446-3.576
			c1.629-0.531,1.229-3.092,3.352-3.128c0-0.745,0-1.49,0-2.234c0.855-0.635,2.773-0.206,2.906-1.564c0.297,0,0.596,0,0.893,0
			c1.552,0.907,1.628,3.288,2.459,4.916c-1.757,1-3.055,2.457-4.916,3.352c-0.913,0.875,0.129,3.704-1.342,4.022
			c0,0.745,0.728,0.763,0.672,1.564c-1.214,3.901-0.941,7.809-2.235,11.619c-1.534,4.512-4.998,9.708-2.905,15.864
			c1.14,3.351,3.361,6.533,5.141,9.832c1.704,3.163,3.451,6.455,5.139,9.609c3.359,6.276,7.307,12.629,10.055,19.439
			c3.012,7.462,4.604,15.315,6.928,22.568c2.352,7.339,5.846,13.688,8.268,20.781c-0.121,0.848-1.391,0.546-2.011,0.894
			c-0.401,0.94-0.464,2.217-0.895,3.127c-1.396,0.857-2.407,0.409-3.799,0.671c-3.048,0.574-5.104,3.33-7.374,3.798
			c-1.277,0.265-2.633-0.124-3.798,0c-3.335,0.353-6.845,1.363-8.938,2.905c-2.472,1.821-4.295,4.487-8.044,4.916
			c-0.745,0-1.489,0-2.235,0c-5.887-4.897-18.24-4.872-24.132,0c-0.745,0-1.489,0-2.233,0c-1.469-0.604-3.215-0.89-4.693-1.787
			c-1.508-0.916-2.248-2.75-4.246-3.799c-2.159-1.133-5.311-1.961-8.044-2.234c-1.151-0.115-2.52,0.254-3.798,0
			c-1.878-0.374-3.29-2.538-5.586-3.351c-3.388-1.201-6.7,0.357-6.257-4.022c-0.642-0.625-2.272-0.26-2.458-1.341
			c2.998-7.036,6.385-13.725,8.715-21.228c2.309-7.439,3.938-15.276,7.15-22.792c4.284-10.022,10.48-19.67,15.641-29.271
			c1.604-2.983,4.279-7.462,4.692-10.279c0.888-6.05-2.163-10.194-3.575-15.194c-1.004-3.554-0.898-6.836-2.012-10.502
			c1.15-1.804-0.57-3.016-0.445-5.586c-1.735-1.318-3.867-2.241-5.14-4.022C784.469,120.414,784.268,117.903,785.852,117.179z
			 M789.203,125.894c0.931-0.83,2.569-0.51,3.352-0.447C792.349,122.493,789.719,124.328,789.203,125.894z M822.943,125.447
			c0.695-0.15,2.465-0.339,3.352,0.447C825.824,124.282,823.118,122.524,822.943,125.447z M789.873,126.787
			c0.725,0.327,1.992,0.329,2.012-0.671C791.276,125.672,789.814,125.866,789.873,126.787z M789.427,127.234
			c-0.136,1.179,0.315,1.771,1.116,2.011c0.598-0.892,2.387-0.594,2.235-2.234C791.645,127.318,790.539,128.097,789.427,127.234z
			 M825.178,129.245c0.566-0.402,1.055-0.881,0.894-2.011c-1.179,0.797-2.171,0.129-3.352-0.223
			C822.656,128.639,824.352,128.507,825.178,129.245z"/>
		<path fill-rule="evenodd" clip-rule="evenodd" fill="#AFAFAF" d="M819.814,257.057c-8.044,0-16.088,0-24.132,0
			C801.574,252.185,813.928,252.16,819.814,257.057z"/>
	</g>
	<g>
		<path fill-rule="evenodd" clip-rule="evenodd" fill="#AFAFAF" d="M-184.425,56.001c1.334-0.301,1.85,0.216,1.549,1.549
			c0.929,0.154-0.215-1.764,1.162-1.162c13.191,1.989,21.967,6.116,32.149,11.233c0.112,1.021,2.286,0.819,1.162,1.937
			c0.387,0.291,1.162-1.442,2.324,0c-1.142,7.39-4.936,15.457-7.359,22.853c-2.992,1.141-5.689,2.574-8.909,3.486
			c-1.458,26.561-1.17,53.865-0.387,80.953c-25.177,0-50.354,0-75.53,0c2.334-25.856,2.484-54.8,0-80.565
			c-2.61-1.78-6.535-2.245-9.684-3.486c-2.005-7.944-6.03-15.909-6.972-23.627c1.13-0.344,1.336-0.494,1.937,0.387
			c3.931-4.767,11.48-6.666,17.43-9.683c1.165-0.391,0.687,0.863,0.774,1.549c0.84,0.065,0.176-1.374,0.387-1.937
			c5.479-0.847,10.618-2.035,15.881-3.099c0,0.775,0,1.549,0,2.324c0.839-0.453-0.052-2.635,1.162-2.711
			c2.146,3.468,2.143,5.995,4.648,8.909C-204.261,74.729-184.973,70.02-184.425,56.001z M-166.995,81.565
			c-0.233-3.128,0.482-9.256-0.387-10.458C-167.149,74.235-167.865,80.363-166.995,81.565z M-232.842,79.628
			c-0.216-2.243,0.46-7.422-0.387-7.747C-233.013,74.125-233.689,79.304-232.842,79.628z M-200.693,72.269
			c-7.007,0.092,0.472,0.933,3.874,0C-197.966,72.282-199.393,72.252-200.693,72.269z"/>
	</g>
	<g>
		<path fill-rule="evenodd" clip-rule="evenodd" fill="#AFAFAF" d="M-420.563,34.902c8.593,3.99,28.346,5.438,36.557,0
			c5.313,3.5,12.111,3.639,17.725,6.093c0.918,0.401,1.105,2.141,2.216,2.769c1.244,0.704,2.811,0.471,3.877,1.108
			c5.542,3.311,8.096,7.411,8.862,16.617c2.478,29.757,5.87,76.357-3.323,101.362c-7.619-0.505-16.313,0.065-17.17-7.201
			c-13.966,5.271-25.476,11.071-39.88,6.647c-5.247-1.612-10.516-5.601-18.832-4.985c-4.321,3.803-10.354,5.894-18.833,5.539
			c-8.928-20.4-5.112-60.284-3.323-86.961c0.686-10.222-0.606-22.501,5.539-28.249C-441.614,42.463-427.086,39.947-420.563,34.902z
			 M-368.498,142.91c2.531-14.649,7.536-30.135,4.431-47.081C-371.928,108.04-375.479,126.829-368.498,142.91z M-435.519,145.126
			c3.521-3.495,2.676-11.356,5.539-15.509c-2.894-1.974-1.303-6.181-1.662-8.862c-1.219-9.117-5.858-16.737-8.862-23.817
			C-442.232,113.567-437.516,129.031-435.519,145.126z"/>
	</g>
	<g>
		<path fill-rule="evenodd" clip-rule="evenodd" fill="#AFAFAF" d="M-366.178,307.098c-0.051,2.616,0.294,4.835,1.399,6.295
			c9.654-0.837,17.887-3.097,27.28-4.196c0.607-0.958,0.106-5.286-0.7-6.995C-349.5,301.858-358.596,303.722-366.178,307.098z
			 M-393.457,307.797c-4.81,0.637-12.133-0.292-9.793,5.596c6.926,0.972,24.237,1.181,30.777-2.798
			c0.038-0.894,0.897-0.968,0.699-2.098C-374.856,303.1-386.348,306.855-393.457,307.797z M-364.08,318.988
			c8.293,2.801,23.106-0.333,27.979-4.196C-343.314,312.881-356.411,316.738-364.08,318.988z M-401.151,320.388
			c3.671,2.927,10.874,1.148,16.788,0.699c4.18-0.316,10.25,1.099,11.191-2.798C-379.814,316.134-394.659,317.745-401.151,320.388z
			 M-361.981,325.284c2.998,8.845,1.227,18.763,2.099,30.077c1.649,21.405,7.717,40.584-2.798,53.86
			c-10.402-23.528,0.49-60.49-9.793-84.637c-8.424,0.903-17.495,1.158-25.88,2.099c1.231,30.013,15.367,47.12,14.689,79.04
			c-5.487,5.725-6.654,15.094-13.291,19.586c-3.844,2.604-9.753,1.546-11.891,6.995c4.857,3.829,14.792,5.431,20.984,2.798
			c5.146-2.189,9.841-15.428,19.585-13.291c-4.834,7.757-14.267,11.056-19.585,17.488c7.285,5.425,21.168,7.334,29.378,3.497
			c3.425-1.601,5.912-6.978,8.394-9.793c4.154-4.712,8.806-6.317,9.793-10.491c1.073-4.541-3.436-13.049-2.798-20.984
			c1.772-22.061,20.757-57.394,6.295-80.44C-344.998,322.683-352.999,324.474-361.981,325.284z"/>
		<path fill-rule="evenodd" clip-rule="evenodd" fill="#AFAFAF" d="M-338.199,302.201c0.807,1.709,1.308,6.037,0.7,6.995
			c-9.393,1.099-17.625,3.359-27.28,4.196c-1.105-1.459-1.451-3.679-1.399-6.295C-358.596,303.722-349.5,301.858-338.199,302.201z"
			/>
		<path fill-rule="evenodd" clip-rule="evenodd" fill="#AFAFAF" d="M-371.774,308.497c0.198,1.129-0.661,1.204-0.699,2.098
			c-6.54,3.979-23.851,3.77-30.777,2.798c-2.34-5.887,4.983-4.958,9.793-5.596C-386.348,306.855-374.856,303.1-371.774,308.497z"/>
		<path fill-rule="evenodd" clip-rule="evenodd" fill="#AFAFAF" d="M-336.101,314.792c-4.873,3.863-19.686,6.998-27.979,4.196
			C-356.411,316.738-343.314,312.881-336.101,314.792z"/>
		<path fill-rule="evenodd" clip-rule="evenodd" fill="#AFAFAF" d="M-373.172,318.289c-0.941,3.896-7.012,2.481-11.191,2.798
			c-5.914,0.449-13.117,2.228-16.788-0.699C-394.659,317.745-379.814,316.134-373.172,318.289z"/>
		<path fill-rule="evenodd" clip-rule="evenodd" fill="#AFAFAF" d="M-336.8,321.087c14.462,23.047-4.522,58.38-6.295,80.44
			c-0.638,7.936,3.871,16.443,2.798,20.984c-0.987,4.174-5.639,5.779-9.793,10.491c-2.482,2.815-4.968,8.192-8.394,9.793
			c-8.21,3.837-22.093,1.928-29.378-3.497c5.319-6.433,14.751-9.731,19.585-17.488c-9.745-2.137-14.439,11.102-19.585,13.291
			c-6.192,2.633-16.127,1.031-20.984-2.798c2.138-5.449,8.047-4.392,11.891-6.995c6.637-4.492,7.803-13.861,13.291-19.586
			c0.678-31.92-13.458-49.027-14.689-79.04c8.385-0.941,17.457-1.196,25.88-2.099c10.283,24.147-0.609,61.108,9.793,84.637
			c10.515-13.275,4.447-32.455,2.798-53.86c-0.872-11.313,0.899-21.231-2.099-30.077
			C-352.999,324.474-344.998,322.683-336.8,321.087z"/>
	</g>
	<g>
		<path fill-rule="evenodd" clip-rule="evenodd" fill="#AFAFAF" d="M-526.92-302.424c0.667,0,1.333,0,2,0
			c15.912,1.551,27.819,11.453,40,18c12.544,6.743,26.45,11.23,37,21c-15.432,0.776-27.808-9.504-40-16
			c-12.521-6.671-25.194-13.562-37-21C-526.622-300.057-526.807-301.204-526.92-302.424z"/>
		<path fill-rule="evenodd" clip-rule="evenodd" fill="#AFAFAF" d="M-433.92-269.424c9.774,2.48,16.776,5.138,28,9
			c6.813,2.344,24.579,5.232,22,15c-1.561,5.91-17.057,8.225-23,10c-12.676,3.785-23.541,7.625-38,6
			c-10.529-1.183-22.216-7.89-33-13c-9.052-4.29-24.974-14.896-33-13c-11.565,2.732-4.215,22.141-11,26
			c-9.482-3.578-3.792-11.934-7-21c-3.464-9.79-12.999-15.092-14-23c-1.331-10.513,5.665-21.994,12-26
			c11.41,4.587,23.649,13.964,38,22C-473.935-266.793-449.508-249.263-433.92-269.424z"/>
		<path fill-rule="evenodd" clip-rule="evenodd" fill="#AFAFAF" d="M-267.92-69.424c10.125,1.562,27.833,3.397,34,0
			c0.502,13.918-21.607,7.998-32,8c9.249,27.445,14.758,63.872,54,58c2.704-3.057,0.938-4.997,0-9c4.848,5.42,44.376,11.366,41,25
			c-1.97,7.956-53.478,10.45-65,7c-17.425-5.217-18.6-23.275-27-41c-3.524-7.436-9.554-20.444-17-20
			c-15.616,0.932-8.632,50.017-13,62c-9.933-0.981-6.436-13.748-7-21c-1.216-15.632-1.789-33.735-5-49
			c-2.118-10.066-7.459-17.014-6-28c1.823-13.721,15.327-19.581,25-26C-273.816-98.195-269.133-85.545-267.92-69.424z"/>
		<path fill-rule="evenodd" clip-rule="evenodd" fill="#AFAFAF" d="M-265.92-75.424c10.354,0.98,24.31-1.643,29,5
			C-245.442-69.571-263.921-66.513-265.92-75.424z"/>
		<path fill-rule="evenodd" clip-rule="evenodd" fill="#AFAFAF" d="M-254.92-35.424c8.28,9.891,19.129,23.585,41,25
			c0,1.667,0,3.333,0,5C-239.074,0.032-246.745-20.577-254.92-35.424z"/>
	</g>
	<g>
		<path fill-rule="evenodd" clip-rule="evenodd" fill="#AFAFAF" d="M75.315,35.089c22.204-1.642,40.643,7.651,47.042,23.26
			c6.797,16.58-0.329,35.848-9.67,46.258c-3.754,4.185-9.446,8.014-15.942,10.454c-1.408,0.529-5.426,2.571-6.011,0
			c-0.573-2.522,4.206-3.361,6.011-4.182c10.612-4.824,21.789-13.581,20.908-29.532c-1.085-19.635-20.543-31.589-41.031-30.316
			c-17.114,1.063-35.865,13.174-34.759,33.19c0.704,12.732,9.084,20.64,18.556,25.612c1.346,0.707,5.709,1.526,4.965,4.182
			c-0.711,2.54-4.504,0.329-5.227,0c-5.026-2.288-10.133-5.846-13.329-9.409c-9.528-10.619-16.416-29.804-9.67-46.258
			C42.695,44.844,57.225,36.427,75.315,35.089z M108.767,49.202c-2.626-2.073-4.49-7.312-7.318-8.102
			c-3.298-0.921-8.313,1.662-10.976,1.307c-2.938-0.392-8.262-5.604-10.977-5.488c-2.492,0.107-7.645,5.139-10.715,5.488
			c-3.209,0.365-6.685-1.627-10.976-1.307c-2.565,2.574-4.854,5.426-7.318,8.102c-2.315,1.43-5.223,2.269-7.056,4.182
			c-0.535,2.079-0.685,4.542-0.784,7.056c-0.418,1.618-3.574,2.008-4.182,3.92c-0.479,1.505-0.045,3.819,0.784,5.227
			c2.493-0.245,6.028-2.982,4.443-7.317c2.262-1.658,5.52-2.321,7.318-4.443c0.501-1.764,0.426-4.104,0.784-6.011
			c3.437,0.571,6.865,1.15,10.715,1.307c2.593-2.721,4.897-5.731,7.579-8.363c2.984,0.728,6.619,4.966,9.669,4.966
			c3.359,0,6.886-4.6,9.931-4.966c2.241,1.589,4.708,7.6,7.579,8.363c3.176,0.843,7.06-1.684,10.454-1.045
			c0.063,2.115,0.502,3.854,0.523,6.011c2.317,1.515,5.002,2.664,7.317,4.182c0.098,1.578-0.074,2.888-0.261,4.181
			c1.59,1.198,2.723,2.853,4.965,3.397c0.838-1.252,0.573-3.609,0.784-5.488c-1.074-1.54-2.93-2.297-4.182-3.659
			c-0.153-2.634-0.437-5.139-0.784-7.579C113.694,51.01,111.375,51.261,108.767,49.202z"/>
		<path fill-rule="evenodd" clip-rule="evenodd" fill="#AFAFAF" d="M88.121,43.191c-2.987,0.947-5.304,4.443-8.363,4.443
			c-3.03,0-5.144-3.594-8.363-4.182c2.792-1.563,5.488-3.223,8.624-4.443C82.658,40.464,85.182,42.036,88.121,43.191z"/>
		<path fill-rule="evenodd" clip-rule="evenodd" fill="#AFAFAF" d="M67.475,43.975c-0.855,2.558-4.004,5.045-6.011,7.318
			c-2.999-0.312-5.608-1.013-8.886-1.045c1.005-2.408,4.137-4.912,6.011-7.318C61.555,43.274,64.255,43.884,67.475,43.975z"/>
		<path fill-rule="evenodd" clip-rule="evenodd" fill="#AFAFAF" d="M106.676,50.247c-3.032,0.191-5.839,0.607-8.625,1.045
			c-2.273-1.997-4.896-5.034-6.272-7.056c2.866-0.619,6.163-0.806,9.147-1.307C102.594,45.455,105.917,47.681,106.676,50.247z"/>
		<path fill-rule="evenodd" clip-rule="evenodd" fill="#AFAFAF" d="M49.442,51.815c0.937,0.665-0.327,3.45,0,5.227
			c-1.631,0.808-3.272,1.606-4.704,2.613c-0.488-1.365,0.4-3.602,0.261-5.488C46.449,53.353,48.138,52.776,49.442,51.815z"/>
		<path fill-rule="evenodd" clip-rule="evenodd" fill="#AFAFAF" d="M109.551,51.815c1.909,0.618,3.401,1.652,4.965,2.614
			c-0.194,1.937,0.423,3.062,0.261,4.965c-1.78-0.571-3.184-1.521-4.704-2.352C110.032,55.167,109.64,53.643,109.551,51.815z"/>
		<path fill-rule="evenodd" clip-rule="evenodd" fill="#AFAFAF" d="M42.125,65.928c-1.03-0.072-0.799,1.117-1.83,1.045
			C39.462,64.498,42.864,62.376,42.125,65.928z"/>
		<path fill-rule="evenodd" clip-rule="evenodd" fill="#AFAFAF" d="M117.392,63.837c0.908,0.05,0.992,0.924,1.829,1.045
			c-0.158,0.626-0.375,1.192-0.261,2.091c-0.549-0.322-1.019-0.723-1.568-1.045C117.392,65.231,117.392,64.534,117.392,63.837z"/>
	</g>
	<g>
		<path fill-rule="evenodd" clip-rule="evenodd" fill="#AFAFAF" d="M-373.854-120.191c0.496,1.991,1.836,3.138,1.865,5.595
			c-17.082,3.308-41.383,3.444-58.437,0c0.466-2.02,1.125-3.848,1.865-5.595C-411.896-117.074-390.583-117.16-373.854-120.191z"/>
		<path fill-rule="evenodd" clip-rule="evenodd" fill="#AFAFAF" d="M-430.427-112.731c9.513,0.642,18.028,2.28,28.597,1.866
			c0,37.922,0,75.843,0,113.766c-8.258,1.346-15.904-0.326-24.245-0.622c2.725-27.665,5.225-51.919,4.973-82.061
			c-1.77,26.205-2.815,53.135-6.216,77.709c-12.948,1.582-25.176-0.791-35.436-3.73C-455.12-44.587-449.418-85.304-430.427-112.731z
			"/>
		<path fill-rule="evenodd" clip-rule="evenodd" fill="#AFAFAF" d="M-339.663-5.803c-9.197,3.858-22.072,4.038-35.436,3.73
			c-2.999-25.599-5.397-51.797-4.973-80.818c-2.241,27.173,0.861,59.601,4.352,85.169c-8.381,0.149-16.677,2.168-24.867,0.622
			c0-37.922,0-75.843,0-113.766c9.938,2.113,18.352-3.193,26.732-1.866c7.143,1.132,11.314,15.504,13.676,21.759
			C-350.692-65.847-343.988-32.645-339.663-5.803z"/>
		<path fill-rule="evenodd" clip-rule="evenodd" fill="#AFAFAF" d="M-427.318-0.208c-1.366,4.021-10.821,2.845-16.164,2.487
			c-7.375-0.495-15.193-2.183-19.894-3.73c0-0.829,0-1.658,0-2.487C-454.632-2.026-439.131,0.848-427.318-0.208z"/>
		<path fill-rule="evenodd" clip-rule="evenodd" fill="#AFAFAF" d="M-339.041-4.56c0.051,0.984-0.299,2.372,0.622,2.487
			c-6.489,2.959-17.779,4.854-29.219,4.352c-2.104-0.093-6.639,1.49-6.838-1.865c9.979-1.46,25.389,0.006,34.192-4.973
			C-339.87-4.56-339.456-4.56-339.041-4.56z"/>
		<path fill-rule="evenodd" clip-rule="evenodd" fill="#AFAFAF" d="M-375.72,4.143c-4.602,3.184-12.324,2.793-19.272,3.108
			c-10.607,0.482-22.037-0.619-31.083-1.243c-0.118-0.503-0.624-0.62-0.622-1.244c-0.101-0.722,0.137-1.106,0.622-1.243
			C-410.75,5.558-389.938,4.552-375.72,4.143z"/>
	</g>
	<g>
		<path fill-rule="evenodd" clip-rule="evenodd" fill="#AFAFAF" d="M-128.958-180.787c1.104,3.118,1.934,6.512,2.803,9.865
			c-3.446-0.627-6.396-1.751-9.754-2.466c-0.112-0.425,0.807-1.267,1.345-1.793c0.629-0.617,1.346-1.199,1.794-1.794
			C-131.464-178.211-130.22-179.509-128.958-180.787z"/>
		<path fill-rule="evenodd" clip-rule="evenodd" fill="#AFAFAF" d="M-136.245-172.043c3.285,0.602,7.002,1.743,10.426,2.579
			c0.208,6.369,0.37,12.785,0.562,19.17C-129.03-157.433-132.469-164.907-136.245-172.043z"/>
		<path fill-rule="evenodd" clip-rule="evenodd" fill="#AFAFAF" d="M-132.882-158.029c1.162,2.351,2.305,4.721,3.476,7.063
			c-4.974-0.115-9.144,0.572-12.332,2.243c-1.994-1.744-4.19-3.285-6.167-5.045C-143.603-155.895-138.993-157.713-132.882-158.029z"
			/>
		<path fill-rule="evenodd" clip-rule="evenodd" fill="#AFAFAF" d="M-102.275-163.299c-6.697,4.627-13.462,9.185-20.18,13.79
			c3.055-5.278,6.511-11.127,9.866-16.48C-109.123-164.993-105.847-164.305-102.275-163.299z"/>
		<path fill-rule="evenodd" clip-rule="evenodd" fill="#AFAFAF" d="M-127.612-181.236c3.366,0.891,6.4,1.741,9.978,2.579
			c-1.841,2.283-4.235,4.274-6.279,6.502c-0.286,0.312-0.551,0.831-1.009,0.896C-125.772-174.63-126.753-177.872-127.612-181.236z"
			/>
		<path fill-rule="evenodd" clip-rule="evenodd" fill="#AFAFAF" d="M-115.392-177.985c3.442,0.788,6.903,1.745,9.978,2.579
			c-2.191,2.631-4.908,4.733-7.063,7.399C-113.74-171.042-114.331-174.749-115.392-177.985z"/>
		<path fill-rule="evenodd" clip-rule="evenodd" fill="#AFAFAF" d="M-116.514-177.537c0.664,3.484,1.91,6.386,2.579,9.866
			c-2.99-0.834-6.701-1.682-9.979-2.579c1.444-1.769,3.242-3.185,4.709-4.932c0.1,0.05,0.201,0.098,0.225,0.224
			C-118.615-175.85-117.572-176.971-116.514-177.537z"/>
		<path fill-rule="evenodd" clip-rule="evenodd" fill="#AFAFAF" d="M-101.714-164.532c-3.516-0.633-6.443-1.853-9.979-2.466
			c2.223-2.635,4.843-4.874,7.176-7.399C-103.41-171.283-102.559-167.91-101.714-164.532z"/>
		<path fill-rule="evenodd" clip-rule="evenodd" fill="#AFAFAF" d="M-114.159-166.438c-2.734,4.366-5.832,8.369-8.632,12.668
			c-0.658-5.043-1.105-9.869-1.57-15.247C-120.597-168.292-117.204-166.974-114.159-166.438z"/>
		<path fill-rule="evenodd" clip-rule="evenodd" fill="#AFAFAF" d="M-150.371-91.772c2.503,1.495,5.26,2.737,8.184,3.812
			c-5.23,5.412-12.333,9.708-21.076,11.66c-9.824,2.193-20.174-0.015-27.355-3.475c-3.639-1.753-6.513-3.95-9.193-6.279
			c-7.727-6.713-15.033-18.627-14.013-33.409c0.986-14.308,7.667-24.206,16.592-31.167c8.421-6.567,23.28-11.204,37.333-6.726
			c7.912,2.521,14.293,6.762,19.283,12.444c4.882,5.56,8.487,12.496,9.978,21.749c1.55,9.628-0.815,19.11-4.708,26.122
			c-3.046-0.579-5.785-1.465-8.072-2.803c3.28-5.229,5.472-13.244,4.596-21.077c-0.701-6.271-2.823-11.271-5.83-15.471
			c-5.989-8.37-15.416-14.42-28.028-14.351c-10.757,0.059-18.478,5.235-23.991,10.875c-3.568,3.649-5.996,7.982-7.624,13.789
			c-2.414,8.611-0.597,18.118,2.915,24.889c1.938,3.735,4.845,6.939,7.96,9.528c0.333,0.277,1.019,0.672,1.01,1.234
			c1.089,0.199,2.075,1.104,3.139,1.793c2.935,1.904,6.946,3.475,10.986,4.261c7.015,1.364,14.901,0.127,20.292-2.466
			c0.708-0.34,1.392-1.209,2.243-0.785c-0.163-0.497,0.571-0.846,1.009-1.121C-153.294-89.657-151.572-90.661-150.371-91.772z"/>
		<path fill-rule="evenodd" clip-rule="evenodd" fill="#AFAFAF" d="M-117.298-90.875c-0.245,0.376-1.029,0.749-1.457,0.897
			c-3.596,1.242-7.829,2.13-12.109,2.13c-7.081,0-13.305-2.249-17.713-4.821c-8.898-5.191-15.88-14.227-17.265-26.794
			c-1.178-10.681,3.086-20.163,8.072-26.234c2.152,1.137,4.182,2.396,5.942,3.925c-2.352,3.157-4.77,6.332-5.942,10.426
			c-4.29,14.981,3.531,27.239,12.78,32.624c4.292,2.5,10.131,4.021,15.92,3.7c5.854-0.324,10.525-2.563,14.687-5.269
			c3.257-2.662,6.079-5.464,8.072-9.193c3.387-6.34,4.683-15.906,1.682-23.432c-2.683-6.725-7.762-12.309-13.79-15.135
			c1.966-1.697,4.211-3.114,6.502-4.484c4.889,3.032,8.526,7.325,11.548,12.332c0.961,1.592,1.957,3.419,2.578,5.269
			c2.594,7.726,2.497,16.483,0,23.88c-2.212,6.553-7.349,12.957-12.892,16.704C-112.747-92.955-115.215-91.324-117.298-90.875z"/>
	</g>
</g>
<g id="Layer_2">
</g>
</svg>
