<?xml version="1.0" encoding="utf-8"?>
<!-- Generator: Adobe Illustrator 15.1.0, SVG Export Plug-In . SVG Version: 6.00 Build 0)  -->
<!DOCTYPE svg PUBLIC "-//W3C//DTD SVG 1.1//EN" "http://www.w3.org/Graphics/SVG/1.1/DTD/svg11.dtd">
<svg version="1.1" id="Layer_1" xmlns="http://www.w3.org/2000/svg" xmlns:xlink="http://www.w3.org/1999/xlink" x="0px" y="0px"
	 width="63px" height="63px" viewBox="0 0 63 63" enable-background="new 0 0 63 63" xml:space="preserve">
<path fill="#BB96C5" d="M105.428,7.334c-17.396,0-31.5,14.103-31.5,31.5c0,17.396,14.104,31.5,31.5,31.5s31.5-14.104,31.5-31.5
	C136.928,21.437,122.824,7.334,105.428,7.334z M122.199,39.928h-14.691v15.406h-4.16V39.928H88.658v-3.9h14.689V20.753h4.16v15.274
	h14.691V39.928z"/>
<path fill="#BB96C5" d="M63,31.5C63,48.9,48.9,63,31.5,63C14.1,63,0,48.9,0,31.5C0,14.1,14.1,0,31.5,0C48.9,0,63,14.1,63,31.5z"/>
<polygon fill="#FFFFFF" points="-46.795,3.294 -50.956,3.294 -50.956,18.569 -65.646,18.569 -65.646,22.469 -50.956,22.469 
	-50.956,37.875 -46.795,37.875 -46.795,22.469 -32.104,22.469 -32.104,18.569 -46.795,18.569 "/>
<g>
	<path fill="#FFFFFF" stroke="#FFFFFF" stroke-width="2" stroke-miterlimit="10" d="M49.809,36.395l-14.314-9.218
		c-1.354-0.873-2.292-1.674-2.728-2.132c0.472-0.379,1.46-1.006,2.882-1.643c0.1-0.04,2.32-1.079,2.32-4.693
		c0-3.547-2.888-6.435-6.437-6.435c-3.55,0-6.437,2.888-6.437,6.435h2.03c0-2.429,1.979-4.407,4.407-4.407
		c2.432,0,4.407,1.979,4.407,4.407c0,2.235-1.093,2.832-1.118,2.844c-1.96,0.875-4.301,2.185-4.301,3.43
		c0,0.077,0.009,0.153,0.027,0.235L13.191,36.395c-1.359,0.877-1.911,1.78-1.646,2.693c0.269,0.908,1.222,1.371,2.837,1.376
		L31.5,40.471l17.117-0.007c1.615-0.005,2.565-0.468,2.836-1.376C51.72,38.175,51.168,37.271,49.809,36.395z M48.617,38.435
		L31.5,38.443l-17.117-0.009c-0.211,0-0.386-0.013-0.524-0.029c0.111-0.083,0.247-0.188,0.426-0.302l17.442-11.229
		c0.815,0.761,1.886,1.503,2.668,2.006l14.319,9.224c0.18,0.113,0.316,0.219,0.424,0.302C49.003,38.422,48.828,38.435,48.617,38.435
		z"/>
</g>
</svg>
