<?xml version="1.0" encoding="utf-8"?>
<!-- Generator: Adobe Illustrator 15.1.0, SVG Export Plug-In . SVG Version: 6.00 Build 0)  -->
<!DOCTYPE svg PUBLIC "-//W3C//DTD SVG 1.1//EN" "http://www.w3.org/Graphics/SVG/1.1/DTD/svg11.dtd">
<svg version="1.1" id="Layer_1" xmlns="http://www.w3.org/2000/svg" xmlns:xlink="http://www.w3.org/1999/xlink" x="0px" y="0px"
	 width="18.656px" height="18.655px" viewBox="0 0 18.656 18.655" enable-background="new 0 0 18.656 18.655" xml:space="preserve">
<g>
	<g>
		<path fill="#9B9A9A" d="M88.66,55.539c-3.637-3.638-3.637-9.556,0-13.192c3.637-3.637,9.554-3.637,13.191,0
			c3.638,3.637,3.638,9.554,0,13.192C98.215,59.175,92.298,59.175,88.66,55.539z M101.083,43.115c-3.213-3.213-8.441-3.213-11.654,0
			c-3.212,3.213-3.213,8.441,0,11.654c3.214,3.213,8.441,3.213,11.654,0S104.297,46.329,101.083,43.115z"/>
	</g>
	<g>
		<g>
			
				<rect x="94.712" y="43.926" transform="matrix(0.7071 0.7071 -0.7071 0.7071 62.5071 -53.0212)" fill="#9B9A9A" width="1.087" height="10.033"/>
		</g>
		<g>
			
				<rect x="90.239" y="48.399" transform="matrix(0.7071 0.7071 -0.7071 0.7071 62.5108 -53.0223)" fill="#9B9A9A" width="10.034" height="1.087"/>
		</g>
	</g>
</g>
<g>
	<g>
		<path fill="#9B9A9A" d="M83.446,81.137c-3.637-3.638-3.637-9.556,0-13.192c3.637-3.637,9.554-3.637,13.191,0
			c3.638,3.637,3.638,9.554,0,13.192C93.001,84.774,87.084,84.774,83.446,81.137z M95.869,68.714c-3.213-3.213-8.441-3.213-11.654,0
			c-3.212,3.213-3.213,8.441,0,11.654c3.214,3.213,8.441,3.213,11.654,0S99.083,71.928,95.869,68.714z"/>
	</g>
	<g>
		<g>
			<polygon fill="#9B9A9A" points="94.421,79.233 87.046,79.233 87.046,75.475 87.729,75.475 87.729,78.551 93.739,78.551 
				93.739,72.667 90.713,72.667 90.713,71.984 94.421,71.984 			"/>
		</g>
		<circle fill="#9B9A9A" cx="87.387" cy="72.24" r="2.558"/>
	</g>
</g>
<g>
	<g>
		<path fill="#9B9A9A" d="M133.256,92.649c-5.144-0.001-9.328-4.185-9.328-9.328s4.184-9.327,9.328-9.327
			c5.145,0,9.328,4.184,9.328,9.328C142.584,88.464,138.4,92.648,133.256,92.649z M133.256,75.081c-4.544,0-8.24,3.697-8.24,8.241
			c0,4.543,3.696,8.241,8.24,8.241c4.545,0,8.24-3.697,8.24-8.241C141.496,78.777,137.801,75.081,133.256,75.081z"/>
	</g>
	<g>
		<g>
			<rect x="132.712" y="78.305" fill="#9B9A9A" width="1.087" height="10.033"/>
		</g>
		<g>
			<rect x="128.239" y="82.777" fill="#9B9A9A" width="10.033" height="1.087"/>
		</g>
	</g>
</g>
<path fill="none" stroke="#9B9A9A" stroke-miterlimit="10" d="M166.833,74.446c0-6.327,13.344-1.497,0,7.531
	C153.493,72.949,166.833,68.119,166.833,74.446z"/>
<g>
	<path fill="#9B9A9A" d="M166.646,85.477c-5.144-0.001-9.328-4.185-9.328-9.328s4.184-9.327,9.328-9.327
		c5.145,0,9.328,4.184,9.328,9.328C175.975,81.292,171.791,85.476,166.646,85.477z M166.646,67.909c-4.544,0-8.24,3.697-8.24,8.241
		c0,4.543,3.696,8.241,8.24,8.241c4.545,0,8.24-3.697,8.24-8.241C174.887,71.605,171.191,67.909,166.646,67.909z"/>
</g>
<g>
	<g>
		<rect x="-87.511" y="64.027" fill="#9B9A9A" width="1.087" height="10.033"/>
	</g>
	<g>
		<rect x="-91.984" y="68.5" fill="#9B9A9A" width="10.033" height="1.087"/>
	</g>
</g>
<g>
	<path fill="#9B9A9A" d="M9.328,18.655C4.185,18.655,0,14.47,0,9.327C0,4.184,4.184,0,9.328,0c5.145,0,9.328,4.184,9.328,9.328
		C18.656,14.471,14.473,18.655,9.328,18.655z M9.328,1.087c-4.544,0-8.24,3.697-8.24,8.241c0,4.543,3.696,8.24,8.24,8.24
		c4.545,0,8.24-3.697,8.24-8.241S13.873,1.087,9.328,1.087z"/>
</g>
<path fill="#F4898B" d="M9.45,7.544c0-6.327,13.344-1.497,0,7.531C-3.89,6.047,9.45,1.217,9.45,7.544z"/>
</svg>
