<?xml version="1.0" encoding="utf-8"?>
<!-- Generator: Adobe Illustrator 15.1.0, SVG Export Plug-In . SVG Version: 6.00 Build 0)  -->
<!DOCTYPE svg PUBLIC "-//W3C//DTD SVG 1.1//EN" "http://www.w3.org/Graphics/SVG/1.1/DTD/svg11.dtd">
<svg version="1.1" id="Layer_1" xmlns="http://www.w3.org/2000/svg" xmlns:xlink="http://www.w3.org/1999/xlink" x="0px" y="0px"
	 width="187.702px" height="187.702px" viewBox="0 0 187.702 187.702" enable-background="new 0 0 187.702 187.702"
	 xml:space="preserve">
<linearGradient id="SVGID_1_" gradientUnits="userSpaceOnUse" x1="4" y1="94.749" x2="183.498" y2="94.749">
	<stop  offset="0" style="stop-color:#F3859B"/>
	<stop  offset="1" style="stop-color:#923F98"/>
</linearGradient>
<path fill="url(#SVGID_1_)" d="M93.749,5C44.182,5,4,45.182,4,94.749s40.182,89.749,89.749,89.749s89.749-40.182,89.749-89.749
	S143.316,5,93.749,5z M140.921,85.035v-0.013c-0.688,1.794-3.364,1.599-4.875,2.566c1.088,3.701,3.245,6.886-0.771,8.982
	c3.656,2.312-0.892,4.651-1.282,6.671c-0.318,1.646,0.855,3.481,0.514,5.646c-0.451,2.853-4.045,5.388-7.187,5.904
	c-7.372,1.206-11.745-2.759-16.421,1.282c-2.393,2.064-7.337,9.342-8.471,12.061c-2.031,4.869-2.559,11.941-3.335,18.475
	c-0.822,6.917-1.635,14.438-1.284,20.786l-31.306-22.582c-3.878-3.166-9.935-6.092-10.52-12.06c3.303-1.486,7.024-2.557,8.723-5.647
	c-13.304-3.173-19.531-12.551-18.475-29.508c0.323-5.201,2.196-9.476,3.079-13.859c1.001-4.981,1.211-10.132,1.797-14.626
	c2.366-18.215,8.644-31.811,22.582-38.234c20.228-9.327,49.857-3.254,59.277,12.829c1.234,2.112,2.248,5.185,2.566,7.7
	c0.688,5.456-1.056,10.611-3.081,15.652c0.743,0.353,2.426,0.993,2.959,0.811c-1.673,1.016-2.817,0.101-2.959,1.5
	c1.068,6.115,5.547,8.823,8.469,13.086c0,0,0.477,0.821,0.46,1.291C141.365,84.213,140.921,85.035,140.921,85.035z"/>
<g>
	<linearGradient id="SVGID_2_" gradientUnits="userSpaceOnUse" x1="7.5732" y1="94.749" x2="179.9238" y2="94.749">
		<stop  offset="0" style="stop-color:#C04E9D"/>
		<stop  offset="0.2526" style="stop-color:#C1519E"/>
		<stop  offset="0.4103" style="stop-color:#C358A1"/>
		<stop  offset="0.5421" style="stop-color:#C865A7"/>
		<stop  offset="0.6595" style="stop-color:#CE75B0"/>
		<stop  offset="0.7675" style="stop-color:#D68ABB"/>
		<stop  offset="0.8684" style="stop-color:#E1A4CA"/>
		<stop  offset="0.9622" style="stop-color:#F0C5DC"/>
		<stop  offset="1" style="stop-color:#FAD5E5"/>
	</linearGradient>
	<path fill="url(#SVGID_2_)" d="M93.748,180.924c-23.018,0-44.658-8.963-60.934-25.24C16.537,139.408,7.573,117.768,7.573,94.749
		c0-23.018,8.964-44.658,25.241-60.936C49.09,17.538,70.73,8.574,93.748,8.574c23.02,0,44.66,8.964,60.936,25.239
		c16.277,16.277,25.24,37.917,25.24,60.936c0,23.019-8.963,44.659-25.24,60.935C138.408,171.961,116.768,180.924,93.748,180.924z
		 M93.748,14.734c-44.12,0-80.014,35.894-80.014,80.015c0,44.12,35.894,80.015,80.014,80.015c44.121,0,80.016-35.895,80.016-80.015
		C173.764,50.628,137.869,14.734,93.748,14.734z"/>
</g>
</svg>
