<?xml version="1.0" encoding="utf-8"?>
<!-- Generator: Adobe Illustrator 15.1.0, SVG Export Plug-In . SVG Version: 6.00 Build 0)  -->
<!DOCTYPE svg PUBLIC "-//W3C//DTD SVG 1.1//EN" "http://www.w3.org/Graphics/SVG/1.1/DTD/svg11.dtd">
<svg version="1.1" id="Layer_1" xmlns="http://www.w3.org/2000/svg" xmlns:xlink="http://www.w3.org/1999/xlink" x="0px" y="0px"
	 width="612px" height="792px" viewBox="0 0 612 792" enable-background="new 0 0 612 792" xml:space="preserve">
<path opacity="0.16" fill="#FFFFFF" d="M514.482,257.291c0.754-7.463,4.766-5.532,13.693-10.955
	c-2.849,0.972-9.732,0.507-13.693-1.369c10.803-26.892,20.102-54.398,16.432-83.506c-1.698-13.419-7.107-29.807-13.691-41.076
	C466.973,34.578,308.897,2.182,200.982,51.938C126.619,86.209,93.129,158.749,80.506,255.92
	c-3.123,23.976-4.247,51.455-9.584,78.032c-4.711,23.385-14.706,46.195-16.431,73.936c-5.627,90.464,27.587,140.493,98.568,157.431
	c-9.066,16.486-28.918,22.196-46.538,30.121c3.12,31.848,35.433,47.443,56.122,64.339l167.012,120.476
	c-1.874-33.861,2.466-73.992,6.847-110.892c4.149-34.856,6.956-72.58,17.8-98.567c6.052-14.501,32.422-53.316,45.183-64.34
	c24.949-21.563,48.276-0.408,87.614-6.846c16.761-2.751,35.929-16.275,38.339-31.49c1.82-11.543-4.437-21.346-2.739-30.123
	c2.083-10.774,26.345-23.25,6.847-35.586c21.427-11.187,9.913-28.176,4.106-47.92c8.064-5.162,22.345-4.122,26.002-13.691v0.066
	c0,0,2.382-4.382,2.465-6.873c0.082-2.504-2.465-6.886-2.465-6.886C544.072,304.364,520.179,289.917,514.482,257.291z"/>
</svg>
