<?xml version="1.0" encoding="utf-8"?>
<!-- Generator: Adobe Illustrator 15.1.0, SVG Export Plug-In . SVG Version: 6.00 Build 0)  -->
<!DOCTYPE svg PUBLIC "-//W3C//DTD SVG 1.1//EN" "http://www.w3.org/Graphics/SVG/1.1/DTD/svg11.dtd">
<svg version="1.1" id="Layer_1" xmlns="http://www.w3.org/2000/svg" xmlns:xlink="http://www.w3.org/1999/xlink" x="0px" y="0px"
	 width="150px" height="150px" viewBox="0 0 150 150" enable-background="new 0 0 150 150" xml:space="preserve">
<g id="clothing">
	<path fill-rule="evenodd" clip-rule="evenodd" fill="#AFAFAF" d="M100.943,22.547c1.104,3.118,1.934,6.512,2.803,9.865
		c-3.446-0.627-6.396-1.751-9.754-2.466c-0.112-0.425,0.807-1.267,1.345-1.793c0.629-0.617,1.346-1.199,1.794-1.794
		C98.437,25.123,99.681,23.826,100.943,22.547z"/>
	<path fill-rule="evenodd" clip-rule="evenodd" fill="#AFAFAF" d="M93.656,31.292c3.285,0.602,7.002,1.743,10.426,2.579
		c0.208,6.369,0.37,12.785,0.562,19.17C100.871,45.902,97.432,38.428,93.656,31.292z"/>
	<path fill-rule="evenodd" clip-rule="evenodd" fill="#AFAFAF" d="M97.019,45.306c1.162,2.351,2.305,4.721,3.476,7.063
		c-4.974-0.115-9.144,0.572-12.332,2.243c-1.994-1.744-4.19-3.285-6.167-5.045C86.298,47.439,90.908,45.622,97.019,45.306z"/>
	<path fill-rule="evenodd" clip-rule="evenodd" fill="#AFAFAF" d="M127.626,40.036c-6.697,4.627-13.462,9.185-20.18,13.79
		c3.055-5.278,6.511-11.127,9.866-16.48C120.778,38.341,124.054,39.029,127.626,40.036z"/>
	<path fill-rule="evenodd" clip-rule="evenodd" fill="#AFAFAF" d="M102.289,22.098c3.366,0.891,6.4,1.741,9.978,2.579
		c-1.841,2.283-4.235,4.274-6.279,6.502c-0.286,0.312-0.551,0.831-1.009,0.896C104.128,28.705,103.148,25.462,102.289,22.098z"/>
	<path fill-rule="evenodd" clip-rule="evenodd" fill="#AFAFAF" d="M114.509,25.35c3.442,0.788,6.903,1.745,9.978,2.579
		c-2.191,2.631-4.908,4.733-7.063,7.399C116.161,32.293,115.57,28.586,114.509,25.35z"/>
	<path fill-rule="evenodd" clip-rule="evenodd" fill="#AFAFAF" d="M113.387,25.798c0.664,3.484,1.91,6.386,2.579,9.866
		c-2.99-0.834-6.701-1.682-9.979-2.579c1.444-1.769,3.242-3.185,4.709-4.932c0.1,0.05,0.201,0.098,0.225,0.224
		C111.286,27.485,112.329,26.363,113.387,25.798z"/>
	<path fill-rule="evenodd" clip-rule="evenodd" fill="#AFAFAF" d="M128.187,38.803c-3.516-0.633-6.443-1.853-9.979-2.466
		c2.223-2.635,4.843-4.874,7.176-7.399C126.491,32.052,127.342,35.424,128.187,38.803z"/>
	<path fill-rule="evenodd" clip-rule="evenodd" fill="#AFAFAF" d="M115.742,36.897c-2.734,4.366-5.832,8.369-8.632,12.668
		c-0.658-5.043-1.105-9.869-1.57-15.247C109.304,35.042,112.697,36.361,115.742,36.897z"/>
	<path fill-rule="evenodd" clip-rule="evenodd" fill="#AFAFAF" d="M79.53,111.563c2.503,1.495,5.26,2.737,8.184,3.812
		c-5.23,5.412-12.333,9.708-21.076,11.66c-9.824,2.193-20.174-0.015-27.355-3.475c-3.639-1.753-6.513-3.95-9.193-6.279
		c-7.727-6.713-15.033-18.627-14.013-33.409c0.986-14.308,7.667-24.206,16.592-31.167c8.421-6.567,23.28-11.204,37.333-6.726
		c7.912,2.521,14.293,6.762,19.283,12.444c4.882,5.56,8.487,12.496,9.978,21.749c1.55,9.628-0.815,19.11-4.708,26.122
		c-3.046-0.579-5.785-1.465-8.072-2.803c3.28-5.229,5.472-13.244,4.596-21.077c-0.701-6.271-2.823-11.271-5.83-15.471
		c-5.989-8.37-15.416-14.42-28.028-14.351c-10.757,0.059-18.478,5.235-23.991,10.875c-3.568,3.649-5.996,7.982-7.624,13.789
		c-2.414,8.611-0.597,18.118,2.915,24.889c1.938,3.735,4.845,6.939,7.96,9.528c0.333,0.277,1.019,0.672,1.01,1.234
		c1.089,0.199,2.075,1.104,3.139,1.793c2.935,1.904,6.946,3.475,10.986,4.261c7.015,1.364,14.901,0.127,20.292-2.466
		c0.708-0.34,1.392-1.209,2.243-0.785c-0.163-0.497,0.571-0.846,1.009-1.121C76.606,113.677,78.329,112.673,79.53,111.563z"/>
	<path fill-rule="evenodd" clip-rule="evenodd" fill="#AFAFAF" d="M112.603,112.459c-0.245,0.376-1.029,0.749-1.457,0.897
		c-3.596,1.242-7.829,2.13-12.109,2.13c-7.081,0-13.305-2.249-17.713-4.821c-8.898-5.191-15.88-14.227-17.265-26.794
		c-1.178-10.681,3.086-20.163,8.072-26.234c2.152,1.137,4.182,2.396,5.942,3.925c-2.352,3.157-4.77,6.332-5.942,10.426
		c-4.29,14.981,3.531,27.239,12.78,32.624c4.292,2.5,10.131,4.021,15.92,3.7c5.854-0.324,10.525-2.563,14.687-5.269
		c3.257-2.662,6.079-5.464,8.072-9.193c3.387-6.34,4.683-15.906,1.682-23.432c-2.683-6.725-7.762-12.309-13.79-15.135
		c1.966-1.697,4.211-3.114,6.502-4.484c4.889,3.032,8.526,7.325,11.548,12.332c0.961,1.592,1.957,3.419,2.578,5.269
		c2.594,7.726,2.497,16.483,0,23.88c-2.212,6.553-7.349,12.957-12.892,16.704C117.154,110.379,114.686,112.01,112.603,112.459z"/>
</g>
</svg>
