<?xml version="1.0" encoding="utf-8"?>
<!-- Generator: Adobe Illustrator 15.1.0, SVG Export Plug-In . SVG Version: 6.00 Build 0)  -->
<!DOCTYPE svg PUBLIC "-//W3C//DTD SVG 1.1//EN" "http://www.w3.org/Graphics/SVG/1.1/DTD/svg11.dtd">
<svg version="1.1" id="Layer_1" xmlns="http://www.w3.org/2000/svg" xmlns:xlink="http://www.w3.org/1999/xlink" x="0px" y="0px"
	 width="150px" height="150px" viewBox="0 0 150 150" enable-background="new 0 0 150 150" xml:space="preserve">
<g id="clothing">
	<path fill="#B0AFB0" d="M130.966,121.367c2.999-2.1,6.112-19.088-9.573-34.157c-15.685-15.068-53.801-10.163-69.276-27.55
		c-15.477-17.387,5.612-33.527,5.612-33.527c-5.208-3.556-12.012-0.236-12.012-0.236c-16.83,13.935-19.271,1.463-22.019,3.989
		c-2.75,2.526-5.404,17.012-4.012,23.162c1.392,6.148,10.383,33.834,48.652,34.678c38.27,0.843,48.942,11.061,45.836,10.284
		s-0.388,1.682-5.816,3.755c-5.428,2.073,13.451,22.77,16.765,23.596C128.44,126.186,127.966,123.468,130.966,121.367z
		 M119.449,102.604c0,0,7.762,6.391,8.541,11.386C128.768,118.987,117.176,107.158,119.449,102.604z"/>
</g>
</svg>
