<?xml version="1.0" encoding="utf-8"?>
<!-- Generator: Adobe Illustrator 15.1.0, SVG Export Plug-In . SVG Version: 6.00 Build 0)  -->
<!DOCTYPE svg PUBLIC "-//W3C//DTD SVG 1.1//EN" "http://www.w3.org/Graphics/SVG/1.1/DTD/svg11.dtd">
<svg version="1.1" id="Layer_1" xmlns="http://www.w3.org/2000/svg" xmlns:xlink="http://www.w3.org/1999/xlink" x="0px" y="0px"
	 width="150px" height="150px" viewBox="0 0 150 150" enable-background="new 0 0 150 150" xml:space="preserve">
<g id="clothing">
	<path fill-rule="evenodd" clip-rule="evenodd" fill="#AFAFAF" d="M91.074,14.617c1.334-0.301,1.85,0.216,1.549,1.549
		c0.929,0.154-0.215-1.764,1.162-1.162c13.191,1.989,21.967,6.116,32.149,11.233c0.112,1.021,2.286,0.819,1.162,1.937
		c0.387,0.291,1.162-1.442,2.324,0c-1.142,7.39-4.936,15.457-7.359,22.853c-2.992,1.141-5.689,2.574-8.909,3.486
		c-1.458,26.561-1.17,53.865-0.387,80.953c-25.177,0-50.354,0-75.53,0c2.334-25.856,2.484-54.8,0-80.565
		c-2.61-1.78-6.535-2.245-9.684-3.486c-2.005-7.944-6.03-15.909-6.972-23.627c1.13-0.344,1.336-0.494,1.937,0.387
		c3.931-4.767,11.48-6.666,17.43-9.683c1.165-0.391,0.687,0.863,0.774,1.549c0.84,0.065,0.176-1.374,0.387-1.937
		c5.479-0.847,10.618-2.035,15.881-3.099c0,0.775,0,1.549,0,2.324c0.839-0.453-0.052-2.635,1.162-2.711
		c2.146,3.468,2.143,5.995,4.648,8.909C71.239,33.345,90.527,28.636,91.074,14.617z M108.504,40.182
		c-0.233-3.128,0.482-9.256-0.387-10.458C108.35,32.852,107.635,38.979,108.504,40.182z M42.657,38.245
		c-0.216-2.243,0.46-7.422-0.387-7.747C42.487,32.742,41.81,37.92,42.657,38.245z M74.806,30.885c-7.007,0.092,0.472,0.933,3.874,0
		C77.533,30.898,76.107,30.868,74.806,30.885z"/>
</g>
</svg>
