<?xml version="1.0" encoding="utf-8"?>
<!-- Generator: Adobe Illustrator 15.1.0, SVG Export Plug-In . SVG Version: 6.00 Build 0)  -->
<!DOCTYPE svg PUBLIC "-//W3C//DTD SVG 1.1//EN" "http://www.w3.org/Graphics/SVG/1.1/DTD/svg11.dtd">
<svg version="1.1" id="Layer_1" xmlns="http://www.w3.org/2000/svg" xmlns:xlink="http://www.w3.org/1999/xlink" x="0px" y="0px"
	 width="150px" height="150px" viewBox="0 0 150 150" enable-background="new 0 0 150 150" xml:space="preserve">
<g id="clothing">
	<path fill-rule="evenodd" clip-rule="evenodd" fill="#AFAFAF" d="M61.244,56.998c6.809,1.05,18.718,2.285,22.865,0
		c0.338,9.36-14.531,5.378-21.52,5.38c6.22,18.457,9.924,42.953,36.314,39.004c1.818-2.056,0.631-3.36,0-6.052
		c3.26,3.645,29.843,7.644,27.572,16.812c-1.325,5.35-35.963,7.027-43.712,4.708c-11.718-3.509-12.508-15.652-18.157-27.572
		c-2.37-5-6.425-13.749-11.432-13.45c-10.502,0.627-5.805,33.636-8.742,41.694c-6.68-0.66-4.328-9.245-4.708-14.122
		c-0.818-10.512-1.203-22.687-3.362-32.952c-1.424-6.769-5.017-11.442-4.035-18.83c1.226-9.228,10.307-13.168,16.812-17.485
		C57.279,37.649,60.429,46.156,61.244,56.998z"/>
	<path fill-rule="evenodd" clip-rule="evenodd" fill="#AFAFAF" d="M62.589,52.963c6.962,0.659,16.348-1.105,19.502,3.362
		C76.36,56.899,63.934,58.955,62.589,52.963z"/>
	<path fill-rule="evenodd" clip-rule="evenodd" fill="#AFAFAF" d="M69.986,79.862c5.568,6.651,12.864,15.86,27.572,16.812
		c0,1.121,0,2.242,0,3.363C80.643,103.706,75.485,89.847,69.986,79.862z"/>
</g>
</svg>
