<?xml version="1.0" encoding="utf-8"?>
<!-- Generator: Adobe Illustrator 15.1.0, SVG Export Plug-In . SVG Version: 6.00 Build 0)  -->
<!DOCTYPE svg PUBLIC "-//W3C//DTD SVG 1.1//EN" "http://www.w3.org/Graphics/SVG/1.1/DTD/svg11.dtd">
<svg version="1.1" id="Layer_1" xmlns="http://www.w3.org/2000/svg" xmlns:xlink="http://www.w3.org/1999/xlink" x="0px" y="0px"
	 width="150px" height="150px" viewBox="0 0 150 150" enable-background="new 0 0 150 150" xml:space="preserve">
<g id="clothing">
	<path fill-rule="evenodd" clip-rule="evenodd" fill="#AFAFAF" d="M81.678,30.194c-0.037,1.851,0.208,3.42,0.99,4.453
		c6.829-0.592,12.651-2.19,19.295-2.968c0.43-0.677,0.075-3.738-0.495-4.948C93.475,26.489,87.041,27.807,81.678,30.194z
		 M62.383,30.689c-3.402,0.451-8.582-0.206-6.927,3.958c4.899,0.688,17.144,0.835,21.769-1.979c0.027-0.632,0.634-0.685,0.495-1.483
		C75.54,27.367,67.411,30.023,62.383,30.689z M83.162,38.605c5.866,1.981,16.344-0.235,19.79-2.968
		C97.85,34.285,88.586,37.014,83.162,38.605z M56.94,39.595c2.597,2.07,7.691,0.813,11.874,0.495
		c2.957-0.224,7.25,0.777,7.916-1.979C72.032,36.586,61.532,37.725,56.94,39.595z M84.646,43.058
		c2.121,6.256,0.868,13.271,1.484,21.274c1.167,15.14,5.458,28.706-1.979,38.096c-7.358-16.642,0.346-42.786-6.927-59.865
		c-5.958,0.639-12.375,0.819-18.306,1.484c0.871,21.229,10.869,33.329,10.39,55.907c-3.881,4.049-4.706,10.676-9.4,13.854
		c-2.719,1.841-6.898,1.093-8.411,4.948c3.436,2.708,10.463,3.841,14.843,1.979c3.64-1.549,6.96-10.913,13.853-9.401
		c-3.419,5.487-10.091,7.82-13.853,12.37c5.153,3.837,14.973,5.188,20.779,2.474c2.423-1.132,4.182-4.936,5.937-6.927
		c2.938-3.333,6.229-4.469,6.927-7.421c0.759-3.212-2.43-9.229-1.979-14.843c1.254-15.604,14.682-40.595,4.453-56.897
		C96.659,41.218,91,42.485,84.646,43.058z"/>
	<path fill-rule="evenodd" clip-rule="evenodd" fill="#AFAFAF" d="M101.468,26.731c0.57,1.209,0.925,4.271,0.495,4.948
		c-6.644,0.778-12.467,2.376-19.295,2.968c-0.782-1.032-1.026-2.602-0.99-4.453C87.041,27.807,93.475,26.489,101.468,26.731z"/>
	<path fill-rule="evenodd" clip-rule="evenodd" fill="#AFAFAF" d="M77.72,31.185c0.14,0.799-0.468,0.852-0.495,1.483
		c-4.625,2.814-16.87,2.667-21.769,1.979c-1.655-4.164,3.524-3.507,6.927-3.958C67.411,30.023,75.54,27.367,77.72,31.185z"/>
	<path fill-rule="evenodd" clip-rule="evenodd" fill="#AFAFAF" d="M102.952,35.637c-3.446,2.733-13.924,4.95-19.79,2.968
		C88.586,37.014,97.85,34.285,102.952,35.637z"/>
	<path fill-rule="evenodd" clip-rule="evenodd" fill="#AFAFAF" d="M76.73,38.11c-0.666,2.756-4.959,1.755-7.916,1.979
		c-4.183,0.318-9.277,1.576-11.874-0.495C61.532,37.725,72.032,36.586,76.73,38.11z"/>
	<path fill-rule="evenodd" clip-rule="evenodd" fill="#AFAFAF" d="M102.458,40.089c10.229,16.302-3.199,41.293-4.453,56.897
		c-0.451,5.613,2.738,11.631,1.979,14.843c-0.698,2.952-3.988,4.088-6.927,7.421c-1.755,1.991-3.514,5.794-5.937,6.927
		c-5.807,2.714-15.626,1.363-20.779-2.474c3.762-4.55,10.434-6.883,13.853-12.37c-6.893-1.511-10.213,7.853-13.853,9.401
		c-4.38,1.862-11.407,0.729-14.843-1.979c1.512-3.854,5.692-3.106,8.411-4.948c4.694-3.178,5.519-9.805,9.4-13.854
		c0.479-22.578-9.519-34.678-10.39-55.907c5.931-0.666,12.347-0.846,18.306-1.484c7.273,17.08-0.431,43.223,6.927,59.865
		c7.437-9.39,3.146-22.956,1.979-38.096c-0.617-8.002,0.636-15.018-1.484-21.274C91,42.485,96.659,41.218,102.458,40.089z"/>
</g>
</svg>
